<svg width="43" height="30" viewBox="0 0 43 30" fill="none" xmlns="http://www.w3.org/2000/svg">
<path d="M16.9195 3.0003C13.554 3.0003 10.3263 3.94915 7.94657 5.63811C5.56681 7.32707 4.22987 9.61779 4.22987 12.0063C4.22987 14.3949 5.56681 16.6856 7.94657 18.3746C10.3263 20.0635 13.554 21.0124 16.9195 21.0124C20.285 21.0124 23.5126 20.0635 25.8924 18.3746C28.2722 16.6856 29.6091 14.3949 29.6091 12.0063C29.6091 9.61779 28.2722 7.32707 25.8924 5.63811C23.5126 3.94915 20.285 3.0003 16.9195 3.0003ZM1.04512e-07 12.0063C0.000385608 10.0954 0.643402 8.21202 1.87561 6.51287C3.10781 4.81372 4.89362 3.34782 7.08462 2.23701C9.27562 1.1262 11.8085 0.402554 14.4728 0.126214C17.1371 -0.150126 19.8559 0.0288206 22.4032 0.648183C24.9504 1.26754 27.2526 2.30943 29.1184 3.68726C30.9842 5.06509 32.3598 6.73906 33.1307 8.57005C33.9016 10.401 34.0456 12.3362 33.5509 14.2146C33.0561 16.0931 31.9367 17.8606 30.2859 19.3703L41.679 27.4562C42.0643 27.7393 42.2775 28.1185 42.2726 28.512C42.2678 28.9056 42.0454 29.2821 41.6533 29.5604C41.2611 29.8387 40.7307 29.9965 40.1762 29.9999C39.6216 30.0034 39.0874 29.8521 38.6885 29.5786L27.2954 21.4927C24.7944 22.8708 21.7987 23.7231 18.649 23.9528C15.4993 24.1825 12.322 23.7804 9.47839 22.7921C6.63477 21.8038 4.23895 20.2691 2.56335 18.3624C0.887763 16.4556 -0.000351757 14.2535 1.04512e-07 12.0063Z" fill="white"/>
</svg>
